<svg xmlns="http://www.w3.org/2000/svg" width="292" height="26" style="background:0 0" preserveAspectRatio="xMidYMid"><rect id="backgroundrect" width="100%" height="100%" x="0" y="0" fill="none" stroke="none"/><defs><filter id="editing-extrude-glow"><feFlood flood-color="none" result="flood-1"/><feMorphology radius="1" in="SourceAlpha" result="erode"/><feComposite operator="in" in="flood-1" in2="erode" result="comp1"/><feConvolveMatrix order="0,0" divisor="1" in="comp1" result="convolve"/><feOffset in="convolve" result="extrude"/><feComposite operator="in" in="flood-1" in2="extrude" result="comp-extrude"/><feFlood flood-color="rgba(0%,0%,0%,0)" result="flood-2"/><feComposite operator="in" in="flood-2" in2="SourceAlpha" result="comp2"/><feMorphology operator="dilate" radius="1" in="comp2" result="dilate"/><feOffset in="dilate" result="offset"/><feGaussianBlur in="offset" stdDeviation="5.8" result="blur"/><feComponentTransfer in="blur" result="shadow"><feFuncA type="linear" slope=".8" intercept="-.2"/></feComponentTransfer><feMerge><feMergeNode in="shadow"/><feMergeNode in="comp-extrude"/><feMergeNode in="SourceGraphic"/></feMerge></filter></defs><style></style><g class="currentLayer"><g filter="url(#editing-extrude-glow)" id="svg_1"><g id="svg_2"><path d="M6.88 16.88v8.18q0 .57-3.42.57-3.46 0-3.46-.54V1.62Q0 .36 1.33.36h6.88q9.47 0 9.47 7.38 0 2.23-.87 4.05-.86 1.82-2.45 2.9l4.54 7.56q-.29.86-1.87 1.98-2.16 1.55-3.57 1.55-1.4 0-2.08-1.01l-3.39-7.89H6.88zm.75-10.15h-.75v5.4h.18q3.42 0 3.42-2.84 0-1.3-.67-1.93-.67-.63-2.18-.63zm15.7 5.76q-1.01-1.8-1.01-2.93 0-1.14.61-1.46 2.05-.9 5.64-.9 3.58 0 5.05 1.67 1.48 1.68 1.48 4.95v5.69h1.22q.62 0 .96.72.34.72.34 1.98t-.63 2.49q-.63 1.22-1.71 1.22-1.94 0-3.13-1.04-.54-.44-.83-1.05-1.66 2.09-5.15 2.09-2.63 0-4.43-1.87-1.8-1.87-1.8-4.43 0-5.87 7.02-5.87h1.98v-.36q0-.93-.3-1.2-.31-.27-1.42-.27-1.37 0-3.89.57zm2.88 6.63q0 .79.43 1.2.43.42 1.1.42.66 0 1.2-.54v-2.78h-1q-1.73 0-1.73 1.7zm20.99-5.33v11.55q0 .26-2.6.26-3.6-.11-3.6-.4V13.54h-.93q-.94 0-1.23-1.59-.07-.47-.07-.93 0-1.12.43-2.24.65-1.58 2.02-1.58t2.45.65q1.08.65 1.44 1.29 2.27-1.94 5.4-1.94 3.13 0 4.53 1.69 1.41 1.69 1.41 5.55v10.8q0 .43-3.08.43t-3.08-.43V14.83q0-1.8-1.26-1.8-.36 0-1.01.31-.64.3-.82.45zm21.42-6.37V.58q0-.54 2.84-.54.97 0 2.25.12 1.28.13 1.28.34v18.98h1.26q.9 0 1.19 1.62.07.46.07 1.27T77 24.34q-.72 1.58-2.3 1.58-1.19 0-2.11-.47-.91-.47-1.24-.97l-.32-.47q-1.98 1.91-4.97 1.91-2.99 0-5.11-2.48-2.13-2.49-2.13-6.93 0-4.45 2.24-6.88 2.23-2.43 5.58-2.43.97 0 1.98.22zm-1.19 5.54q-2.02 0-2.02 3.64 0 1.83.58 2.64.57.81 1.28.81.7 0 1.35-.61v-6.12q-.62-.36-1.19-.36zm13.98 10.48q-2.25-2.49-2.25-6.88t2.25-6.88q2.25-2.48 6.07-2.48 3.82 0 6.05 2.48 2.23 2.49 2.23 6.88t-2.23 6.88q-2.23 2.48-6.05 2.48t-6.07-2.48zm6.09-10.23q-2.04 0-2.04 3.31 0 3.32 2.04 3.32 2.03 0 2.03-3.32 0-3.31-2.03-3.31zm27.12.61v11.56q0 .25-3.07.25-3.08 0-3.08-.32V14.83q0-1.8-1.19-1.8-.61 0-1.62.79v11.52q0 .36-3.08.36t-3.08-.39V13.54h-.9q-1.18 0-1.18-2.49 0-1.11.43-2.27.57-1.58 1.87-1.58 1.3 0 2.5.68 1.21.69 1.46 1.3 2.23-1.98 4.95-1.98T113 8.89q1.95-1.69 4.68-1.69 5.94 0 5.94 7.24v10.94q0 .25-3.07.25-3.08 0-3.08-.32V14.83q0-1.8-1.19-1.8-.65 0-1.66.79zm23.91 10.98L132.23.83q0-.18 1.56-.34 1.57-.17 2.58-.17 3.99 0 4.17 1.05l3.1 15.84 2.92-15.84q.21-1.05 4.46-1.05 1.04 0 2.63.15 1.58.14 1.58.32l-6.37 23.83q-.14.58-2.12.76-3.06.32-5.57.13-2.5-.2-2.64-.71zm25.31-17.13v17.67q0 .29-3.3.29-3.29 0-3.29-.25V7.7q0-.25 3.29-.25 3.3 0 3.3.22zm0-7.42v5.29q0 .26-3.3.26-3.29 0-3.29-.22V.4q0-.36 3.29-.36 3.3 0 3.3.21zm12.34 7.17V.58q0-.54 2.85-.54.97 0 2.25.12 1.28.13 1.28.34v18.98h1.26q.9 0 1.18 1.62.08.46.08 1.27t-.51 1.97q-.72 1.58-2.3 1.58-1.19 0-2.11-.47-.92-.47-1.24-.97l-.32-.47q-1.98 1.91-4.97 1.91-2.99 0-5.11-2.48-2.13-2.49-2.13-6.93 0-4.45 2.23-6.88 2.24-2.43 5.58-2.43.98 0 1.98.22zM175 12.96q-2.02 0-2.02 3.64 0 1.83.58 2.64.57.81 1.27.81.71 0 1.35-.61v-6.12q-.61-.36-1.18-.36zm26.02 11.63q-2.26 1.33-5.83 1.33-3.56 0-6.01-2.43-2.45-2.43-2.45-6.73 0-4.3 2.36-6.93t5.96-2.63q3.6 0 5.56 1.84 1.96 1.83 1.96 4.46 0 5.83-6.69 5.83h-2.49q0 1.08.6 1.5.59.41 1.74.41 2.52 0 4.79-1.15.04-.04.32.5.87 1.55.87 2.61 0 1.06-.69 1.39zm-4.5-10.41q0-1.51-1.47-1.51-.69 0-1.17.42-.49.41-.49 1.2v1.12h1.95q1.18 0 1.18-1.23zm9.96 9.26q-2.25-2.49-2.25-6.88t2.25-6.88q2.25-2.48 6.06-2.48 3.82 0 6.05 2.48 2.23 2.49 2.23 6.88t-2.23 6.88q-2.23 2.48-6.05 2.48-3.81 0-6.06-2.48zm6.08-10.23q-2.03 0-2.03 3.31 0 3.32 2.03 3.32 2.04 0 2.04-3.32 0-3.31-2.04-3.31zM233.86.04q2.62 0 4.62.73 2 .74 2 2t-.95 3.12q-.96 1.85-1.61 1.85-.18 0-.41-.2-.23-.2-1.08-.43-.85-.23-1.46-.23-2.09 0-3.36 1.47-1.28 1.48-1.28 4.52 0 3.04 1.31 4.52 1.32 1.47 3.33 1.47.83 0 1.86-.23 1.02-.23 1.45-.67.08-.07.29-.07.22 0 .81.81.6.81 1.1 2.13.5 1.31.5 2.03 0 1.4-2.16 2.23-2.16.83-5.11.83-4.75 0-7.81-3.35-3.06-3.35-3.06-9.45t3.15-9.59q3.15-3.49 7.87-3.49zm15.73 13.6v11.67q0 .32-3.01.32-3 0-3-.5V.47q0-.25 1.11-.36 1.12-.11 1.87-.11 3.03 0 3.03.65v7.2q2.01-.61 3.06-.61 2.73 0 4.32 1.45 1.58 1.46 1.58 5.42v11.16q0 .33-2.81.33-3.16-.11-3.16-.36V14.65q0-1.76-1.16-1.76-.79 0-1.83.75zm14.29-1.15q-1.01-1.8-1.01-2.93 0-1.14.61-1.46 2.06-.9 5.64-.9 3.58 0 5.06 1.67 1.47 1.68 1.47 4.95v5.69h1.23q.61 0 .95.72.34.72.34 1.98t-.63 2.49q-.63 1.22-1.71 1.22-1.94 0-3.13-1.04-.54-.44-.83-1.05-1.65 2.09-5.15 2.09-2.62 0-4.42-1.87-1.8-1.87-1.8-4.43 0-5.87 7.02-5.87h1.98v-.36q0-.93-.31-1.2-.31-.27-1.42-.27-1.37 0-3.89.57zm2.88 6.63q0 .79.43 1.2.43.42 1.1.42.67 0 1.21-.54v-2.78h-1.01q-1.73 0-1.73 1.7zm21.74-6.52v12.74q0 .44-3.02.44-3.6-.15-3.6-.47V12.56h-1.84q-.72 0-.72-2.48 0-.65.13-1.58.13-.94.52-.94h1.91V4.39q0-.72 3.04-.72t3.04.58v2.3l.04 1.01h3.06q.61 0 .61 2.52t-.61 2.52h-2.56z" fill="#c9d5ff" id="svg_3"/></g></g></g></svg>